<?xml version="1.0" standalone="no"?>
<!DOCTYPE svg PUBLIC "-//W3C//DTD SVG 20010904//EN"
 "http://www.w3.org/TR/2001/REC-SVG-20010904/DTD/svg10.dtd">
<svg version="1.0" xmlns="http://www.w3.org/2000/svg"
 width="624.000000pt" height="624.000000pt" viewBox="0 0 624.000000 624.000000"
 preserveAspectRatio="xMidYMid meet">
<metadata>
Created by potrace 1.11, written by Peter Selinger 2001-2013
</metadata>
<g transform="translate(0.000000,624.000000) scale(0.100000,-0.100000)"
fill="#000000" stroke="none">
<path d="M2920 6234 c-19 -2 -78 -9 -130 -15 -760 -85 -1487 -488 -1973 -1094
-771 -961 -924 -2267 -397 -3381 421 -890 1244 -1527 2190 -1697 188 -34 281
-42 515 -42 346 0 585 37 895 137 789 255 1449 839 1810 1602 576 1217 333
2669 -605 3611 -475 478 -1051 765 -1725 861 -100 14 -505 27 -580 18z m-510
-425 c98 -24 272 -111 387 -194 51 -36 94 -65 97 -65 3 0 47 27 98 61 115 76
179 108 288 147 245 86 482 65 730 -64 144 -75 187 -109 270 -211 85 -106 155
-241 176 -343 89 -422 -309 -952 -1176 -1565 -69 -49 -127 -90 -128 -91 -4 -3
16 -762 24 -921 l6 -113 276 0 c257 0 281 -2 346 -22 124 -39 183 -126 151
-219 -29 -81 -61 -124 -114 -153 -50 -27 -59 -28 -314 -41 -144 -8 -278 -15
-298 -15 l-36 0 -7 -246 c-4 -135 -6 -247 -4 -249 2 -2 98 55 213 127 261 161
280 170 362 170 126 -1 217 -86 230 -217 5 -45 1 -63 -20 -107 -26 -52 -33
-57 -277 -212 -138 -87 -260 -166 -272 -175 -19 -16 -17 -19 84 -116 57 -55
181 -167 277 -249 182 -157 202 -182 217 -273 8 -51 -17 -141 -51 -182 -55
-65 -198 -81 -293 -32 -23 12 -140 109 -259 216 -119 107 -220 195 -225 195
-4 0 -8 -70 -8 -155 0 -169 -4 -187 -57 -237 -72 -69 -206 -92 -289 -50 -52
27 -100 81 -113 129 -8 26 -11 542 -11 1605 l0 1567 -57 44 c-32 24 -134 95
-228 158 -660 442 -940 762 -1005 1149 -33 195 30 438 165 634 50 73 98 120
189 184 207 147 422 190 656 131z"/>
<path d="M2077 5306 c-108 -45 -174 -115 -204 -215 -32 -112 -1 -197 148 -396
166 -223 393 -423 840 -738 l66 -47 169 131 c388 302 572 469 694 630 75 100
105 162 126 261 37 174 -33 325 -175 379 -47 18 -71 20 -146 16 -127 -7 -214
-41 -324 -126 -47 -37 -151 -117 -231 -178 l-146 -111 -256 192 c-186 140
-271 197 -309 209 -76 25 -181 22 -252 -7z"/>
</g>
</svg>
